G04 EAGLE Gerber RS-274X export*
G75*
%MOMM*%
%FSLAX34Y34*%
%LPD*%
%INTop Copper*%
%IPPOS*%
%AMOC8*
5,1,8,0,0,1.08239X$1,22.5*%
G01*
G04 Define Apertures*
%ADD10P,1.54782X8X22.5*%
%ADD11P,1.54782X8X292.5*%
%ADD12C,1.790700*%
%ADD13C,1.950000*%
%ADD14C,1.524000*%
%ADD15P,1.54782X8X202.5*%
%ADD16C,1.676400*%
%ADD17P,1.81452X8X22.5*%
%ADD18C,0.304800*%
%ADD19C,0.914400*%
G36*
X205170Y11805D02*
X205670Y12148D01*
X205997Y12659D01*
X206098Y13257D01*
X205959Y13847D01*
X205824Y14040D01*
X204186Y17995D01*
X204186Y22137D01*
X205771Y25965D01*
X208701Y28895D01*
X209087Y29055D01*
X209590Y29394D01*
X209921Y29902D01*
X210028Y30463D01*
X210028Y72875D01*
X209907Y73469D01*
X209582Y73953D01*
X66124Y217410D01*
X65428Y219091D01*
X65428Y460909D01*
X66124Y462590D01*
X177410Y573876D01*
X179091Y574572D01*
X293164Y574572D01*
X293759Y574693D01*
X294242Y575018D01*
X295684Y576460D01*
X298484Y577620D01*
X301516Y577620D01*
X304316Y576460D01*
X306460Y574316D01*
X307620Y571516D01*
X307620Y568484D01*
X306460Y565684D01*
X304316Y563540D01*
X301516Y562380D01*
X298484Y562380D01*
X295684Y563540D01*
X294242Y564982D01*
X293736Y565317D01*
X293164Y565428D01*
X182525Y565428D01*
X181931Y565307D01*
X181447Y564982D01*
X75018Y458553D01*
X74683Y458047D01*
X74572Y457475D01*
X74572Y222525D01*
X74693Y221931D01*
X75018Y221447D01*
X92686Y203780D01*
X93192Y203445D01*
X93788Y203334D01*
X94380Y203464D01*
X94875Y203815D01*
X95194Y204331D01*
X95286Y204930D01*
X95172Y205441D01*
X94668Y206656D01*
X94668Y211344D01*
X96462Y215674D01*
X99776Y218988D01*
X104106Y220782D01*
X108794Y220782D01*
X113124Y218988D01*
X116438Y215674D01*
X118232Y211344D01*
X118232Y208865D01*
X118353Y208271D01*
X118678Y207787D01*
X243876Y82590D01*
X244572Y80909D01*
X244572Y30463D01*
X244693Y29868D01*
X245036Y29368D01*
X245513Y29055D01*
X245899Y28895D01*
X248829Y25965D01*
X250414Y22137D01*
X250414Y17995D01*
X248762Y14005D01*
X248612Y13780D01*
X248501Y13184D01*
X248631Y12591D01*
X248982Y12097D01*
X249498Y11778D01*
X250025Y11684D01*
X255375Y11684D01*
X255970Y11805D01*
X256470Y12148D01*
X256797Y12659D01*
X256898Y13257D01*
X256759Y13847D01*
X256624Y14040D01*
X254986Y17995D01*
X254986Y22137D01*
X256571Y25965D01*
X259501Y28895D01*
X263329Y30480D01*
X267471Y30480D01*
X271299Y28895D01*
X274229Y25965D01*
X275814Y22137D01*
X275814Y17995D01*
X274162Y14005D01*
X274012Y13780D01*
X273901Y13184D01*
X274031Y12591D01*
X274382Y12097D01*
X274898Y11778D01*
X275425Y11684D01*
X444529Y11684D01*
X445124Y11805D01*
X445607Y12130D01*
X467870Y34393D01*
X468205Y34899D01*
X468316Y35471D01*
X468316Y128534D01*
X468195Y129128D01*
X467852Y129628D01*
X467341Y129955D01*
X466743Y130057D01*
X466153Y129917D01*
X465664Y129559D01*
X465343Y129005D01*
X464808Y127360D01*
X459688Y120312D01*
X452640Y115192D01*
X444356Y112500D01*
X435644Y112500D01*
X427360Y115192D01*
X420312Y120312D01*
X415192Y127360D01*
X412500Y135644D01*
X412500Y144356D01*
X415192Y152640D01*
X420312Y159688D01*
X427360Y164808D01*
X435644Y167500D01*
X444356Y167500D01*
X452640Y164808D01*
X459688Y159688D01*
X464808Y152640D01*
X465343Y150995D01*
X465641Y150467D01*
X466122Y150098D01*
X466709Y149945D01*
X467309Y150033D01*
X467827Y150348D01*
X468181Y150840D01*
X468316Y151466D01*
X468316Y1486324D01*
X468195Y1486919D01*
X467852Y1487419D01*
X467341Y1487746D01*
X466743Y1487848D01*
X465896Y1487557D01*
X462640Y1485192D01*
X454356Y1482500D01*
X445644Y1482500D01*
X437360Y1485192D01*
X430312Y1490312D01*
X425192Y1497360D01*
X422500Y1505644D01*
X422500Y1514356D01*
X425192Y1522640D01*
X427557Y1525896D01*
X427809Y1526448D01*
X427826Y1527054D01*
X427605Y1527619D01*
X427181Y1528053D01*
X426324Y1528316D01*
X53676Y1528316D01*
X53081Y1528195D01*
X52581Y1527852D01*
X52254Y1527341D01*
X52152Y1526743D01*
X52443Y1525896D01*
X54808Y1522640D01*
X57500Y1514356D01*
X57500Y1505644D01*
X54808Y1497360D01*
X49688Y1490312D01*
X42640Y1485192D01*
X34356Y1482500D01*
X25644Y1482500D01*
X17360Y1485192D01*
X14104Y1487557D01*
X13552Y1487809D01*
X12946Y1487826D01*
X12381Y1487605D01*
X11947Y1487181D01*
X11684Y1486324D01*
X11684Y1389867D01*
X11805Y1389273D01*
X12148Y1388772D01*
X12659Y1388445D01*
X13257Y1388344D01*
X13847Y1388483D01*
X14286Y1388789D01*
X15986Y1390490D01*
X18476Y1390490D01*
X18476Y1371110D01*
X15986Y1371110D01*
X14286Y1372811D01*
X13780Y1373146D01*
X13184Y1373257D01*
X12591Y1373127D01*
X12097Y1372776D01*
X11778Y1372260D01*
X11684Y1371733D01*
X11684Y1287549D01*
X11805Y1286954D01*
X12148Y1286454D01*
X12659Y1286127D01*
X13257Y1286025D01*
X13847Y1286165D01*
X14286Y1286471D01*
X16197Y1288382D01*
X23803Y1288382D01*
X29182Y1283003D01*
X29182Y1277115D01*
X29303Y1276521D01*
X29628Y1276037D01*
X33131Y1272534D01*
X33637Y1272199D01*
X34209Y1272088D01*
X62599Y1272088D01*
X63193Y1272209D01*
X63693Y1272552D01*
X64020Y1273063D01*
X64123Y1273612D01*
X64123Y1278655D01*
X65795Y1282692D01*
X68885Y1285783D01*
X69595Y1286077D01*
X70098Y1286416D01*
X70429Y1286924D01*
X70536Y1287485D01*
X70536Y1372515D01*
X70415Y1373110D01*
X70072Y1373610D01*
X69595Y1373923D01*
X68885Y1374217D01*
X65795Y1377308D01*
X64123Y1381345D01*
X64123Y1403623D01*
X65795Y1407660D01*
X68885Y1410751D01*
X72923Y1412423D01*
X77293Y1412423D01*
X81331Y1410751D01*
X84421Y1407660D01*
X86094Y1403623D01*
X86094Y1381345D01*
X84421Y1377308D01*
X81331Y1374217D01*
X80621Y1373923D01*
X80118Y1373584D01*
X79787Y1373076D01*
X79680Y1372515D01*
X79680Y1287485D01*
X79801Y1286890D01*
X80144Y1286390D01*
X80621Y1286077D01*
X81331Y1285783D01*
X84421Y1282692D01*
X86094Y1278655D01*
X86094Y1263628D01*
X86214Y1263033D01*
X86540Y1262550D01*
X98018Y1251071D01*
X98524Y1250736D01*
X99096Y1250625D01*
X114008Y1250625D01*
X114603Y1250746D01*
X115103Y1251089D01*
X115430Y1251600D01*
X115532Y1252198D01*
X115416Y1252732D01*
X113907Y1256377D01*
X113907Y1278655D01*
X115579Y1282692D01*
X118669Y1285783D01*
X119379Y1286077D01*
X119882Y1286416D01*
X120213Y1286924D01*
X120320Y1287485D01*
X120320Y1372515D01*
X120199Y1373110D01*
X119856Y1373610D01*
X119379Y1373923D01*
X118669Y1374217D01*
X115579Y1377308D01*
X113907Y1381345D01*
X113907Y1403623D01*
X115579Y1407660D01*
X118669Y1410751D01*
X122707Y1412423D01*
X126126Y1412423D01*
X126720Y1412544D01*
X127204Y1412869D01*
X141172Y1426837D01*
X141507Y1427343D01*
X141618Y1427915D01*
X141618Y1433803D01*
X143641Y1435826D01*
X143976Y1436332D01*
X144087Y1436928D01*
X143957Y1437521D01*
X143606Y1438015D01*
X143090Y1438334D01*
X142563Y1438428D01*
X64725Y1438428D01*
X64131Y1438307D01*
X63647Y1437982D01*
X58828Y1433163D01*
X58493Y1432657D01*
X58382Y1432085D01*
X58382Y1426197D01*
X53003Y1420818D01*
X45397Y1420818D01*
X40018Y1426197D01*
X40018Y1433803D01*
X45397Y1439182D01*
X51285Y1439182D01*
X51879Y1439303D01*
X52363Y1439628D01*
X59610Y1446876D01*
X61291Y1447572D01*
X317109Y1447572D01*
X318790Y1446876D01*
X326037Y1439628D01*
X326543Y1439293D01*
X327115Y1439182D01*
X333003Y1439182D01*
X338382Y1433803D01*
X338382Y1426197D01*
X333003Y1420818D01*
X325397Y1420818D01*
X320018Y1426197D01*
X320018Y1432085D01*
X319897Y1432679D01*
X319572Y1433163D01*
X314753Y1437982D01*
X314247Y1438317D01*
X313675Y1438428D01*
X299037Y1438428D01*
X298442Y1438307D01*
X297942Y1437964D01*
X297615Y1437453D01*
X297513Y1436855D01*
X297653Y1436265D01*
X297959Y1435826D01*
X299982Y1433803D01*
X299982Y1426197D01*
X294603Y1420818D01*
X288715Y1420818D01*
X288121Y1420697D01*
X287637Y1420372D01*
X275136Y1407871D01*
X274801Y1407365D01*
X274690Y1406769D01*
X274806Y1406210D01*
X275878Y1403623D01*
X275878Y1381345D01*
X274205Y1377308D01*
X271115Y1374217D01*
X270405Y1373923D01*
X269902Y1373584D01*
X269571Y1373076D01*
X269464Y1372515D01*
X269464Y1287485D01*
X269585Y1286890D01*
X269928Y1286390D01*
X270405Y1286077D01*
X271115Y1285783D01*
X274205Y1282692D01*
X275878Y1278655D01*
X275878Y1256377D01*
X274368Y1252732D01*
X274252Y1252137D01*
X274377Y1251543D01*
X274724Y1251046D01*
X275238Y1250723D01*
X275776Y1250625D01*
X331120Y1250625D01*
X331714Y1250746D01*
X332198Y1251071D01*
X343676Y1262550D01*
X344011Y1263056D01*
X344123Y1263628D01*
X344123Y1278655D01*
X345795Y1282692D01*
X348885Y1285783D01*
X349595Y1286077D01*
X350098Y1286416D01*
X350429Y1286924D01*
X350536Y1287485D01*
X350536Y1372515D01*
X350415Y1373110D01*
X350072Y1373610D01*
X349595Y1373923D01*
X348885Y1374217D01*
X345795Y1377308D01*
X344123Y1381345D01*
X344123Y1403623D01*
X345795Y1407660D01*
X348885Y1410751D01*
X352923Y1412423D01*
X357293Y1412423D01*
X361331Y1410751D01*
X364421Y1407660D01*
X366094Y1403623D01*
X366094Y1381345D01*
X364421Y1377308D01*
X361331Y1374217D01*
X360621Y1373923D01*
X360118Y1373584D01*
X359787Y1373076D01*
X359680Y1372515D01*
X359680Y1287485D01*
X359801Y1286890D01*
X360144Y1286390D01*
X360621Y1286077D01*
X361331Y1285783D01*
X364421Y1282692D01*
X366094Y1278655D01*
X366094Y1256377D01*
X364421Y1252340D01*
X361331Y1249249D01*
X357293Y1247577D01*
X352923Y1247577D01*
X348885Y1249249D01*
X347174Y1250961D01*
X346668Y1251296D01*
X346072Y1251407D01*
X345480Y1251277D01*
X345019Y1250961D01*
X336235Y1242177D01*
X334554Y1241481D01*
X334384Y1241481D01*
X333789Y1241360D01*
X333289Y1241017D01*
X332962Y1240506D01*
X332860Y1239908D01*
X333000Y1239318D01*
X333306Y1238879D01*
X338382Y1233803D01*
X338382Y1226197D01*
X333003Y1220818D01*
X325397Y1220818D01*
X320018Y1226197D01*
X320018Y1233803D01*
X325094Y1238879D01*
X325429Y1239385D01*
X325540Y1239981D01*
X325410Y1240574D01*
X325059Y1241068D01*
X324543Y1241387D01*
X324016Y1241481D01*
X295984Y1241481D01*
X295389Y1241360D01*
X294889Y1241017D01*
X294562Y1240506D01*
X294460Y1239908D01*
X294600Y1239318D01*
X294906Y1238879D01*
X299982Y1233803D01*
X299982Y1226197D01*
X294603Y1220818D01*
X288715Y1220818D01*
X288121Y1220697D01*
X287637Y1220372D01*
X275136Y1207871D01*
X274801Y1207365D01*
X274690Y1206769D01*
X274806Y1206210D01*
X275878Y1203623D01*
X275878Y1181345D01*
X274205Y1177308D01*
X271115Y1174217D01*
X270405Y1173923D01*
X269902Y1173584D01*
X269571Y1173076D01*
X269464Y1172515D01*
X269464Y1087485D01*
X269585Y1086890D01*
X269928Y1086390D01*
X270405Y1086077D01*
X271115Y1085783D01*
X274205Y1082692D01*
X275878Y1078655D01*
X275878Y1056377D01*
X274368Y1052732D01*
X274252Y1052137D01*
X274377Y1051543D01*
X274724Y1051046D01*
X275238Y1050723D01*
X275776Y1050625D01*
X331120Y1050625D01*
X331714Y1050746D01*
X332198Y1051071D01*
X343676Y1062550D01*
X344011Y1063056D01*
X344123Y1063628D01*
X344123Y1078655D01*
X345795Y1082692D01*
X348885Y1085783D01*
X349595Y1086077D01*
X350098Y1086416D01*
X350429Y1086924D01*
X350536Y1087485D01*
X350536Y1172515D01*
X350415Y1173110D01*
X350072Y1173610D01*
X349595Y1173923D01*
X348885Y1174217D01*
X345795Y1177308D01*
X344123Y1181345D01*
X344123Y1203623D01*
X345795Y1207660D01*
X348885Y1210751D01*
X352923Y1212423D01*
X357293Y1212423D01*
X361331Y1210751D01*
X364421Y1207660D01*
X366094Y1203623D01*
X366094Y1181345D01*
X364421Y1177308D01*
X361331Y1174217D01*
X360621Y1173923D01*
X360118Y1173584D01*
X359787Y1173076D01*
X359680Y1172515D01*
X359680Y1087485D01*
X359801Y1086890D01*
X360144Y1086390D01*
X360621Y1086077D01*
X361331Y1085783D01*
X364421Y1082692D01*
X366094Y1078655D01*
X366094Y1056377D01*
X364421Y1052340D01*
X361331Y1049249D01*
X357293Y1047577D01*
X352923Y1047577D01*
X348885Y1049249D01*
X347174Y1050961D01*
X346668Y1051296D01*
X346072Y1051407D01*
X345480Y1051277D01*
X345019Y1050961D01*
X336235Y1042177D01*
X334554Y1041481D01*
X334384Y1041481D01*
X333789Y1041360D01*
X333289Y1041017D01*
X332962Y1040506D01*
X332860Y1039908D01*
X333000Y1039318D01*
X333306Y1038879D01*
X338382Y1033803D01*
X338382Y1026197D01*
X333003Y1020818D01*
X325397Y1020818D01*
X320018Y1026197D01*
X320018Y1033803D01*
X325094Y1038879D01*
X325429Y1039385D01*
X325540Y1039981D01*
X325410Y1040574D01*
X325059Y1041068D01*
X324543Y1041387D01*
X324016Y1041481D01*
X295984Y1041481D01*
X295389Y1041360D01*
X294889Y1041017D01*
X294562Y1040506D01*
X294460Y1039908D01*
X294600Y1039318D01*
X294906Y1038879D01*
X299982Y1033803D01*
X299982Y1026197D01*
X294603Y1020818D01*
X288715Y1020818D01*
X288121Y1020697D01*
X287637Y1020372D01*
X275136Y1007871D01*
X274801Y1007365D01*
X274690Y1006769D01*
X274806Y1006210D01*
X275878Y1003623D01*
X275878Y981345D01*
X274205Y977308D01*
X271115Y974217D01*
X270405Y973923D01*
X269902Y973584D01*
X269571Y973076D01*
X269464Y972515D01*
X269464Y887485D01*
X269585Y886890D01*
X269928Y886390D01*
X270405Y886077D01*
X271115Y885783D01*
X274205Y882692D01*
X275878Y878655D01*
X275878Y856377D01*
X274346Y852679D01*
X274230Y852084D01*
X274355Y851490D01*
X274702Y850993D01*
X275216Y850670D01*
X275754Y850572D01*
X330761Y850572D01*
X331355Y850693D01*
X331839Y851018D01*
X343676Y862856D01*
X344011Y863362D01*
X344123Y863934D01*
X344123Y878961D01*
X345795Y882998D01*
X348885Y886089D01*
X349595Y886383D01*
X350098Y886722D01*
X350429Y887230D01*
X350536Y887791D01*
X350536Y972821D01*
X350415Y973416D01*
X350072Y973916D01*
X349595Y974229D01*
X348885Y974523D01*
X345795Y977614D01*
X344123Y981651D01*
X344123Y1003929D01*
X345795Y1007966D01*
X348885Y1011057D01*
X352923Y1012729D01*
X357293Y1012729D01*
X361331Y1011057D01*
X364421Y1007966D01*
X366094Y1003929D01*
X366094Y981651D01*
X364421Y977614D01*
X361331Y974523D01*
X360621Y974229D01*
X360118Y973890D01*
X359787Y973382D01*
X359680Y972821D01*
X359680Y887791D01*
X359801Y887196D01*
X360144Y886696D01*
X360621Y886383D01*
X361331Y886089D01*
X364421Y882998D01*
X366094Y878961D01*
X366094Y856683D01*
X364421Y852646D01*
X361331Y849555D01*
X357293Y847883D01*
X352923Y847883D01*
X348885Y849555D01*
X347174Y851267D01*
X346668Y851602D01*
X346072Y851713D01*
X345480Y851583D01*
X345019Y851267D01*
X335876Y842124D01*
X333964Y841332D01*
X333842Y841307D01*
X333342Y840964D01*
X333015Y840453D01*
X332913Y839855D01*
X333053Y839265D01*
X333359Y838826D01*
X338382Y833803D01*
X338382Y826197D01*
X333003Y820818D01*
X325397Y820818D01*
X320018Y826197D01*
X320018Y833803D01*
X325041Y838826D01*
X325376Y839332D01*
X325487Y839928D01*
X325357Y840521D01*
X325006Y841015D01*
X324490Y841334D01*
X323963Y841428D01*
X296037Y841428D01*
X295442Y841307D01*
X294942Y840964D01*
X294615Y840453D01*
X294513Y839855D01*
X294653Y839265D01*
X294959Y838826D01*
X299982Y833803D01*
X299982Y826197D01*
X294603Y820818D01*
X288715Y820818D01*
X288121Y820697D01*
X287637Y820372D01*
X275136Y807871D01*
X274801Y807365D01*
X274690Y806769D01*
X274806Y806210D01*
X275878Y803623D01*
X275878Y781345D01*
X274205Y777308D01*
X271115Y774217D01*
X270405Y773923D01*
X269902Y773584D01*
X269571Y773076D01*
X269464Y772515D01*
X269464Y687485D01*
X269585Y686890D01*
X269928Y686390D01*
X270405Y686077D01*
X271115Y685783D01*
X274205Y682692D01*
X275878Y678655D01*
X275878Y656161D01*
X275841Y655974D01*
X275966Y655381D01*
X276313Y654883D01*
X276827Y654560D01*
X277426Y654463D01*
X278015Y654607D01*
X278443Y654908D01*
X294926Y671392D01*
X296607Y672088D01*
X342599Y672088D01*
X343193Y672209D01*
X343693Y672552D01*
X344020Y673063D01*
X344123Y673612D01*
X344123Y678655D01*
X345795Y682692D01*
X348885Y685783D01*
X349595Y686077D01*
X350098Y686416D01*
X350429Y686924D01*
X350536Y687485D01*
X350536Y772515D01*
X350415Y773110D01*
X350072Y773610D01*
X349595Y773923D01*
X348885Y774217D01*
X345795Y777308D01*
X344123Y781345D01*
X344123Y803623D01*
X345795Y807660D01*
X348885Y810751D01*
X352923Y812423D01*
X357293Y812423D01*
X361331Y810751D01*
X364421Y807660D01*
X366094Y803623D01*
X366094Y781345D01*
X364421Y777308D01*
X361331Y774217D01*
X360621Y773923D01*
X360118Y773584D01*
X359787Y773076D01*
X359680Y772515D01*
X359680Y687485D01*
X359801Y686890D01*
X360144Y686390D01*
X360621Y686077D01*
X361331Y685783D01*
X364421Y682692D01*
X366094Y678655D01*
X366094Y656377D01*
X364421Y652340D01*
X361331Y649249D01*
X357293Y647577D01*
X352923Y647577D01*
X348885Y649249D01*
X345795Y652340D01*
X344123Y656377D01*
X344123Y661420D01*
X344002Y662014D01*
X343659Y662515D01*
X343148Y662842D01*
X342599Y662944D01*
X300041Y662944D01*
X299447Y662823D01*
X298963Y662498D01*
X272590Y636124D01*
X270909Y635428D01*
X246096Y635428D01*
X245502Y635307D01*
X245001Y634964D01*
X244674Y634453D01*
X244572Y633904D01*
X244572Y619004D01*
X244693Y618409D01*
X245036Y617909D01*
X245435Y617647D01*
X248183Y614899D01*
X249652Y611352D01*
X249652Y592272D01*
X248183Y588725D01*
X245467Y586009D01*
X241920Y584540D01*
X238080Y584540D01*
X234533Y586009D01*
X231817Y588725D01*
X230348Y592272D01*
X230348Y611352D01*
X231817Y614899D01*
X234569Y617651D01*
X234990Y617935D01*
X235321Y618443D01*
X235428Y619004D01*
X235428Y638285D01*
X235754Y639073D01*
X235870Y639669D01*
X235745Y640262D01*
X235424Y640734D01*
X225197Y650961D01*
X224692Y651296D01*
X224096Y651407D01*
X223503Y651277D01*
X223042Y650961D01*
X221331Y649249D01*
X217293Y647577D01*
X212923Y647577D01*
X208885Y649249D01*
X205795Y652340D01*
X204123Y656377D01*
X204123Y661420D01*
X204002Y662014D01*
X203659Y662515D01*
X203148Y662842D01*
X202599Y662944D01*
X154062Y662944D01*
X153467Y662823D01*
X152984Y662498D01*
X132663Y642177D01*
X130983Y641481D01*
X95662Y641481D01*
X93981Y642177D01*
X85197Y650961D01*
X84692Y651296D01*
X84096Y651407D01*
X83503Y651277D01*
X83042Y650961D01*
X81331Y649249D01*
X77293Y647577D01*
X72923Y647577D01*
X68885Y649249D01*
X65795Y652340D01*
X64123Y656377D01*
X64123Y661420D01*
X64002Y662014D01*
X63659Y662515D01*
X63148Y662842D01*
X62599Y662944D01*
X30775Y662944D01*
X29094Y663640D01*
X23163Y669572D01*
X22657Y669907D01*
X22085Y670018D01*
X16197Y670018D01*
X14286Y671929D01*
X13780Y672264D01*
X13184Y672375D01*
X12591Y672245D01*
X12097Y671894D01*
X11778Y671378D01*
X11684Y670851D01*
X11684Y151466D01*
X11805Y150872D01*
X12148Y150372D01*
X12659Y150045D01*
X13257Y149943D01*
X13847Y150083D01*
X14336Y150442D01*
X14657Y150995D01*
X15192Y152640D01*
X20312Y159688D01*
X27360Y164808D01*
X35644Y167500D01*
X44356Y167500D01*
X52640Y164808D01*
X59688Y159688D01*
X64808Y152640D01*
X67500Y144356D01*
X67500Y135644D01*
X64808Y127360D01*
X59688Y120312D01*
X52640Y115192D01*
X44356Y112500D01*
X35644Y112500D01*
X27360Y115192D01*
X20312Y120312D01*
X15192Y127360D01*
X14657Y129005D01*
X14359Y129533D01*
X13878Y129902D01*
X13291Y130055D01*
X12691Y129967D01*
X12173Y129652D01*
X11819Y129160D01*
X11684Y128534D01*
X11684Y35471D01*
X11805Y34877D01*
X12130Y34393D01*
X34393Y12130D01*
X34899Y11795D01*
X35471Y11684D01*
X204575Y11684D01*
X205170Y11805D01*
G37*
%LPC*%
G36*
X146997Y1460818D02*
X141618Y1466197D01*
X141618Y1473803D01*
X146997Y1479182D01*
X154603Y1479182D01*
X158767Y1475018D01*
X159273Y1474683D01*
X159845Y1474572D01*
X190175Y1474572D01*
X190769Y1474693D01*
X191253Y1475018D01*
X193219Y1476984D01*
X193554Y1477490D01*
X193665Y1478086D01*
X193535Y1478679D01*
X193184Y1479173D01*
X192668Y1479492D01*
X192141Y1479586D01*
X182986Y1479586D01*
X176886Y1485686D01*
X176886Y1494314D01*
X182986Y1500414D01*
X191614Y1500414D01*
X197714Y1494314D01*
X197714Y1485159D01*
X197835Y1484565D01*
X198178Y1484064D01*
X198689Y1483738D01*
X199287Y1483636D01*
X199877Y1483775D01*
X200316Y1484081D01*
X201840Y1485605D01*
X202175Y1486111D01*
X202286Y1486683D01*
X202286Y1494314D01*
X208386Y1500414D01*
X217014Y1500414D01*
X223114Y1494314D01*
X223114Y1485686D01*
X217014Y1479586D01*
X209383Y1479586D01*
X208789Y1479465D01*
X208305Y1479140D01*
X195290Y1466124D01*
X193609Y1465428D01*
X159845Y1465428D01*
X159250Y1465307D01*
X158767Y1464982D01*
X154603Y1460818D01*
X146997Y1460818D01*
G37*
G36*
X262986Y1479586D02*
X256886Y1485686D01*
X256886Y1494314D01*
X262986Y1500414D01*
X271614Y1500414D01*
X277714Y1494314D01*
X277714Y1485686D01*
X271614Y1479586D01*
X262986Y1479586D01*
G37*
G36*
X325397Y1460818D02*
X321233Y1464982D01*
X320727Y1465317D01*
X320155Y1465428D01*
X311791Y1465428D01*
X310110Y1466124D01*
X297095Y1479140D01*
X296589Y1479475D01*
X296017Y1479586D01*
X288386Y1479586D01*
X282286Y1485686D01*
X282286Y1494314D01*
X288386Y1500414D01*
X297014Y1500414D01*
X303114Y1494314D01*
X303114Y1486683D01*
X303235Y1486089D01*
X303560Y1485605D01*
X314147Y1475018D01*
X314653Y1474683D01*
X315225Y1474572D01*
X320155Y1474572D01*
X320750Y1474693D01*
X321233Y1475018D01*
X325397Y1479182D01*
X333003Y1479182D01*
X338382Y1473803D01*
X338382Y1466197D01*
X333003Y1460818D01*
X325397Y1460818D01*
G37*
G36*
X50724Y1471524D02*
X50724Y1479690D01*
X53214Y1479690D01*
X58890Y1474014D01*
X58890Y1471524D01*
X50724Y1471524D01*
G37*
G36*
X432324Y1471524D02*
X432324Y1479690D01*
X434814Y1479690D01*
X440490Y1474014D01*
X440490Y1471524D01*
X432324Y1471524D01*
G37*
G36*
X421110Y1471524D02*
X421110Y1474014D01*
X426786Y1479690D01*
X429276Y1479690D01*
X429276Y1471524D01*
X421110Y1471524D01*
G37*
G36*
X39510Y1471524D02*
X39510Y1474014D01*
X45186Y1479690D01*
X47676Y1479690D01*
X47676Y1471524D01*
X39510Y1471524D01*
G37*
G36*
X50724Y1460310D02*
X50724Y1468476D01*
X58890Y1468476D01*
X58890Y1465986D01*
X53214Y1460310D01*
X50724Y1460310D01*
G37*
G36*
X426786Y1460310D02*
X421110Y1465986D01*
X421110Y1468476D01*
X429276Y1468476D01*
X429276Y1460310D01*
X426786Y1460310D01*
G37*
G36*
X432324Y1460310D02*
X432324Y1468476D01*
X440490Y1468476D01*
X440490Y1465986D01*
X434814Y1460310D01*
X432324Y1460310D01*
G37*
G36*
X45186Y1460310D02*
X39510Y1465986D01*
X39510Y1468476D01*
X47676Y1468476D01*
X47676Y1460310D01*
X45186Y1460310D01*
G37*
G36*
X402707Y1247577D02*
X398669Y1249249D01*
X395579Y1252340D01*
X393907Y1256377D01*
X393907Y1278655D01*
X395579Y1282692D01*
X398669Y1285783D01*
X399379Y1286077D01*
X399882Y1286416D01*
X400213Y1286924D01*
X400320Y1287485D01*
X400320Y1372515D01*
X400199Y1373110D01*
X399856Y1373610D01*
X399379Y1373923D01*
X398669Y1374217D01*
X395579Y1377308D01*
X393907Y1381345D01*
X393907Y1403623D01*
X395579Y1407660D01*
X398669Y1410751D01*
X402707Y1412423D01*
X406126Y1412423D01*
X406720Y1412544D01*
X407204Y1412869D01*
X421172Y1426837D01*
X421507Y1427343D01*
X421618Y1427915D01*
X421618Y1433803D01*
X426997Y1439182D01*
X434603Y1439182D01*
X439982Y1433803D01*
X439982Y1426197D01*
X434603Y1420818D01*
X428715Y1420818D01*
X428121Y1420697D01*
X427637Y1420372D01*
X415136Y1407871D01*
X414801Y1407365D01*
X414690Y1406769D01*
X414806Y1406210D01*
X415878Y1403623D01*
X415878Y1381345D01*
X414205Y1377308D01*
X411115Y1374217D01*
X410405Y1373923D01*
X409902Y1373584D01*
X409571Y1373076D01*
X409464Y1372515D01*
X409464Y1287485D01*
X409585Y1286890D01*
X409928Y1286390D01*
X410405Y1286077D01*
X411115Y1285783D01*
X414205Y1282692D01*
X415878Y1278655D01*
X415878Y1256377D01*
X414205Y1252340D01*
X411115Y1249249D01*
X407077Y1247577D01*
X402707Y1247577D01*
G37*
G36*
X21524Y1382324D02*
X21524Y1390490D01*
X24014Y1390490D01*
X29690Y1384814D01*
X29690Y1382324D01*
X21524Y1382324D01*
G37*
G36*
X21524Y1371110D02*
X21524Y1379276D01*
X29690Y1379276D01*
X29690Y1376786D01*
X24014Y1371110D01*
X21524Y1371110D01*
G37*
G36*
X402707Y1047577D02*
X398669Y1049249D01*
X395579Y1052340D01*
X393907Y1056377D01*
X393907Y1078655D01*
X395579Y1082692D01*
X398669Y1085783D01*
X399379Y1086077D01*
X399882Y1086416D01*
X400213Y1086924D01*
X400320Y1087485D01*
X400320Y1172515D01*
X400199Y1173110D01*
X399856Y1173610D01*
X399379Y1173923D01*
X398669Y1174217D01*
X395579Y1177308D01*
X393907Y1181345D01*
X393907Y1203623D01*
X395579Y1207660D01*
X398669Y1210751D01*
X402707Y1212423D01*
X406126Y1212423D01*
X406720Y1212544D01*
X407204Y1212869D01*
X421172Y1226837D01*
X421507Y1227343D01*
X421618Y1227915D01*
X421618Y1233803D01*
X426997Y1239182D01*
X434603Y1239182D01*
X439982Y1233803D01*
X439982Y1226197D01*
X434603Y1220818D01*
X428715Y1220818D01*
X428121Y1220697D01*
X427637Y1220372D01*
X415136Y1207871D01*
X414801Y1207365D01*
X414690Y1206769D01*
X414806Y1206210D01*
X415878Y1203623D01*
X415878Y1181345D01*
X414205Y1177308D01*
X411115Y1174217D01*
X410405Y1173923D01*
X409902Y1173584D01*
X409571Y1173076D01*
X409464Y1172515D01*
X409464Y1087485D01*
X409585Y1086890D01*
X409928Y1086390D01*
X410405Y1086077D01*
X411115Y1085783D01*
X414205Y1082692D01*
X415878Y1078655D01*
X415878Y1056377D01*
X414205Y1052340D01*
X411115Y1049249D01*
X407077Y1047577D01*
X402707Y1047577D01*
G37*
G36*
X402707Y847883D02*
X398669Y849555D01*
X395579Y852646D01*
X393907Y856683D01*
X393907Y878961D01*
X395579Y882998D01*
X398669Y886089D01*
X399379Y886383D01*
X399882Y886722D01*
X400213Y887230D01*
X400320Y887791D01*
X400320Y972821D01*
X400199Y973416D01*
X399856Y973916D01*
X399379Y974229D01*
X398669Y974523D01*
X395579Y977614D01*
X393907Y981651D01*
X393907Y1003929D01*
X395579Y1007966D01*
X398669Y1011057D01*
X402707Y1012729D01*
X406432Y1012729D01*
X407026Y1012850D01*
X407510Y1013175D01*
X421172Y1026837D01*
X421507Y1027343D01*
X421618Y1027915D01*
X421618Y1033803D01*
X426997Y1039182D01*
X434603Y1039182D01*
X439982Y1033803D01*
X439982Y1026197D01*
X434603Y1020818D01*
X428715Y1020818D01*
X428121Y1020697D01*
X427637Y1020372D01*
X415226Y1007960D01*
X414891Y1007454D01*
X414780Y1006858D01*
X414896Y1006299D01*
X415878Y1003929D01*
X415878Y981651D01*
X414205Y977614D01*
X411115Y974523D01*
X410405Y974229D01*
X409902Y973890D01*
X409571Y973382D01*
X409464Y972821D01*
X409464Y887791D01*
X409585Y887196D01*
X409928Y886696D01*
X410405Y886383D01*
X411115Y886089D01*
X414205Y882998D01*
X415878Y878961D01*
X415878Y856683D01*
X414205Y852646D01*
X411115Y849555D01*
X407077Y847883D01*
X402707Y847883D01*
G37*
G36*
X402707Y647577D02*
X398669Y649249D01*
X395579Y652340D01*
X393907Y656377D01*
X393907Y678655D01*
X395579Y682692D01*
X398669Y685783D01*
X399379Y686077D01*
X399882Y686416D01*
X400213Y686924D01*
X400320Y687485D01*
X400320Y772515D01*
X400199Y773110D01*
X399856Y773610D01*
X399379Y773923D01*
X398669Y774217D01*
X395579Y777308D01*
X393907Y781345D01*
X393907Y803623D01*
X395579Y807660D01*
X398669Y810751D01*
X402707Y812423D01*
X406126Y812423D01*
X406720Y812544D01*
X407204Y812869D01*
X421172Y826837D01*
X421507Y827343D01*
X421618Y827915D01*
X421618Y833803D01*
X426997Y839182D01*
X434603Y839182D01*
X439982Y833803D01*
X439982Y826197D01*
X434603Y820818D01*
X428715Y820818D01*
X428121Y820697D01*
X427637Y820372D01*
X415136Y807871D01*
X414801Y807365D01*
X414690Y806769D01*
X414806Y806210D01*
X415878Y803623D01*
X415878Y781345D01*
X414205Y777308D01*
X411115Y774217D01*
X410405Y773923D01*
X409902Y773584D01*
X409571Y773076D01*
X409464Y772515D01*
X409464Y687485D01*
X409585Y686890D01*
X409928Y686390D01*
X410405Y686077D01*
X411115Y685783D01*
X414205Y682692D01*
X415878Y678655D01*
X415878Y656377D01*
X414205Y652340D01*
X411115Y649249D01*
X407077Y647577D01*
X402707Y647577D01*
G37*
G36*
X292324Y603336D02*
X292324Y619592D01*
X292821Y619592D01*
X296555Y618045D01*
X299413Y615187D01*
X300960Y611453D01*
X300960Y603336D01*
X292324Y603336D01*
G37*
G36*
X280640Y603336D02*
X280640Y611453D01*
X282187Y615187D01*
X285045Y618045D01*
X288779Y619592D01*
X289276Y619592D01*
X289276Y603336D01*
X280640Y603336D01*
G37*
G36*
X161880Y584540D02*
X158333Y586009D01*
X155617Y588725D01*
X154148Y592272D01*
X154148Y611352D01*
X155617Y614899D01*
X158333Y617615D01*
X161880Y619084D01*
X165720Y619084D01*
X169267Y617615D01*
X171983Y614899D01*
X173452Y611352D01*
X173452Y592272D01*
X171983Y588725D01*
X169267Y586009D01*
X165720Y584540D01*
X161880Y584540D01*
G37*
G36*
X187280Y584540D02*
X183733Y586009D01*
X181017Y588725D01*
X179548Y592272D01*
X179548Y611352D01*
X181017Y614899D01*
X183733Y617615D01*
X187280Y619084D01*
X191120Y619084D01*
X194667Y617615D01*
X197383Y614899D01*
X198852Y611352D01*
X198852Y592272D01*
X197383Y588725D01*
X194667Y586009D01*
X191120Y584540D01*
X187280Y584540D01*
G37*
G36*
X314280Y584540D02*
X310733Y586009D01*
X308017Y588725D01*
X306548Y592272D01*
X306548Y611352D01*
X308017Y614899D01*
X310733Y617615D01*
X314280Y619084D01*
X318120Y619084D01*
X321667Y617615D01*
X324383Y614899D01*
X325852Y611352D01*
X325852Y592272D01*
X324383Y588725D01*
X321667Y586009D01*
X318120Y584540D01*
X314280Y584540D01*
G37*
G36*
X263480Y584540D02*
X259933Y586009D01*
X257217Y588725D01*
X255748Y592272D01*
X255748Y611352D01*
X257217Y614899D01*
X259933Y617615D01*
X263480Y619084D01*
X267320Y619084D01*
X270867Y617615D01*
X273583Y614899D01*
X275052Y611352D01*
X275052Y592272D01*
X273583Y588725D01*
X270867Y586009D01*
X267320Y584540D01*
X263480Y584540D01*
G37*
G36*
X212680Y584540D02*
X209133Y586009D01*
X206417Y588725D01*
X204948Y592272D01*
X204948Y611352D01*
X206417Y614899D01*
X209133Y617615D01*
X212680Y619084D01*
X216520Y619084D01*
X220067Y617615D01*
X222783Y614899D01*
X224252Y611352D01*
X224252Y592272D01*
X222783Y588725D01*
X220067Y586009D01*
X216520Y584540D01*
X212680Y584540D01*
G37*
G36*
X68280Y568817D02*
X68015Y568840D01*
X65791Y568840D01*
X64198Y569500D01*
X63879Y569593D01*
X62651Y569809D01*
X60708Y570932D01*
X60529Y571020D01*
X58014Y572061D01*
X57149Y572926D01*
X56834Y573168D01*
X56189Y573540D01*
X54427Y575640D01*
X54337Y575738D01*
X52061Y578014D01*
X51787Y578677D01*
X51546Y579073D01*
X51392Y579257D01*
X50285Y582298D01*
X50261Y582360D01*
X48840Y585791D01*
X48840Y594209D01*
X50261Y597640D01*
X50285Y597702D01*
X51392Y600743D01*
X51546Y600927D01*
X51787Y601323D01*
X52061Y601986D01*
X54337Y604262D01*
X54427Y604360D01*
X56189Y606460D01*
X56834Y606832D01*
X57149Y607074D01*
X58014Y607939D01*
X60529Y608980D01*
X60708Y609069D01*
X62651Y610191D01*
X63879Y610407D01*
X64198Y610500D01*
X65791Y611160D01*
X68015Y611160D01*
X68280Y611183D01*
X70000Y611486D01*
X71720Y611183D01*
X71985Y611160D01*
X74209Y611160D01*
X75802Y610500D01*
X76121Y610407D01*
X77349Y610191D01*
X79292Y609069D01*
X79471Y608980D01*
X81986Y607939D01*
X82851Y607074D01*
X83166Y606832D01*
X83811Y606460D01*
X85573Y604360D01*
X85663Y604262D01*
X87939Y601986D01*
X88213Y601323D01*
X88454Y600927D01*
X88608Y600743D01*
X89715Y597702D01*
X89739Y597640D01*
X91160Y594209D01*
X91160Y585791D01*
X89739Y582360D01*
X89715Y582298D01*
X88608Y579257D01*
X88454Y579073D01*
X88213Y578677D01*
X87939Y578014D01*
X85663Y575738D01*
X85573Y575640D01*
X83811Y573540D01*
X83166Y573168D01*
X82851Y572926D01*
X81986Y572061D01*
X79471Y571020D01*
X79292Y570932D01*
X77349Y569809D01*
X76121Y569593D01*
X75802Y569500D01*
X74209Y568840D01*
X71985Y568840D01*
X71720Y568817D01*
X70000Y568514D01*
X68280Y568817D01*
G37*
G36*
X288779Y584032D02*
X285045Y585579D01*
X282187Y588437D01*
X280640Y592171D01*
X280640Y600288D01*
X289276Y600288D01*
X289276Y584032D01*
X288779Y584032D01*
G37*
G36*
X292324Y584032D02*
X292324Y600288D01*
X300960Y600288D01*
X300960Y592171D01*
X299413Y588437D01*
X296555Y585579D01*
X292821Y584032D01*
X292324Y584032D01*
G37*
G36*
X97676Y348316D02*
X93382Y350095D01*
X90095Y353382D01*
X88316Y357676D01*
X88316Y432324D01*
X90095Y436618D01*
X93382Y439905D01*
X97676Y441684D01*
X402324Y441684D01*
X406618Y439905D01*
X409905Y436618D01*
X411684Y432324D01*
X411684Y357676D01*
X409905Y353382D01*
X406618Y350095D01*
X402324Y348316D01*
X97676Y348316D01*
G37*
G36*
X294160Y210524D02*
X294160Y211445D01*
X296031Y215962D01*
X299488Y219419D01*
X304005Y221290D01*
X304926Y221290D01*
X304926Y210524D01*
X294160Y210524D01*
G37*
G36*
X307974Y210524D02*
X307974Y221290D01*
X308895Y221290D01*
X313412Y219419D01*
X316869Y215962D01*
X318740Y211445D01*
X318740Y210524D01*
X307974Y210524D01*
G37*
G36*
X307974Y196710D02*
X307974Y207476D01*
X318740Y207476D01*
X318740Y206555D01*
X316869Y202038D01*
X313412Y198581D01*
X308895Y196710D01*
X307974Y196710D01*
G37*
G36*
X304005Y196710D02*
X299488Y198581D01*
X296031Y202038D01*
X294160Y206555D01*
X294160Y207476D01*
X304926Y207476D01*
X304926Y196710D01*
X304005Y196710D01*
G37*
G36*
X408280Y48817D02*
X408015Y48840D01*
X405791Y48840D01*
X404198Y49500D01*
X403879Y49593D01*
X402651Y49809D01*
X400708Y50932D01*
X400529Y51020D01*
X398014Y52061D01*
X397149Y52926D01*
X396834Y53168D01*
X396189Y53540D01*
X394427Y55640D01*
X394337Y55738D01*
X392061Y58014D01*
X391787Y58677D01*
X391546Y59073D01*
X391392Y59257D01*
X390285Y62298D01*
X390261Y62360D01*
X388840Y65791D01*
X388840Y74209D01*
X390261Y77640D01*
X390285Y77702D01*
X391392Y80743D01*
X391546Y80927D01*
X391787Y81323D01*
X392061Y81986D01*
X394337Y84262D01*
X394427Y84360D01*
X396189Y86460D01*
X396834Y86832D01*
X397149Y87074D01*
X398014Y87939D01*
X400529Y88980D01*
X400708Y89069D01*
X402651Y90191D01*
X403879Y90407D01*
X404198Y90500D01*
X405791Y91160D01*
X408015Y91160D01*
X408280Y91183D01*
X410000Y91486D01*
X411720Y91183D01*
X411985Y91160D01*
X414209Y91160D01*
X415802Y90500D01*
X416121Y90407D01*
X417349Y90191D01*
X419292Y89069D01*
X419471Y88980D01*
X421986Y87939D01*
X422851Y87074D01*
X423166Y86832D01*
X423811Y86460D01*
X425573Y84360D01*
X425663Y84262D01*
X427939Y81986D01*
X428213Y81323D01*
X428454Y80927D01*
X428608Y80743D01*
X429715Y77702D01*
X429739Y77640D01*
X431160Y74209D01*
X431160Y65791D01*
X429739Y62360D01*
X429715Y62298D01*
X428608Y59257D01*
X428454Y59073D01*
X428213Y58677D01*
X427939Y58014D01*
X425663Y55738D01*
X425573Y55640D01*
X423811Y53540D01*
X423166Y53168D01*
X422851Y52926D01*
X421986Y52061D01*
X419471Y51020D01*
X419292Y50932D01*
X417349Y49809D01*
X416121Y49593D01*
X415802Y49500D01*
X414209Y48840D01*
X411985Y48840D01*
X411720Y48817D01*
X410000Y48514D01*
X408280Y48817D01*
G37*
%LPD*%
G36*
X191714Y1250746D02*
X192198Y1251071D01*
X203676Y1262550D01*
X204011Y1263056D01*
X204123Y1263628D01*
X204123Y1278655D01*
X205795Y1282692D01*
X208885Y1285783D01*
X209595Y1286077D01*
X210098Y1286416D01*
X210429Y1286924D01*
X210536Y1287485D01*
X210536Y1372515D01*
X210415Y1373110D01*
X210072Y1373610D01*
X209595Y1373923D01*
X208885Y1374217D01*
X205795Y1377308D01*
X204123Y1381345D01*
X204123Y1403623D01*
X205795Y1407660D01*
X208885Y1410751D01*
X212923Y1412423D01*
X217293Y1412423D01*
X221331Y1410751D01*
X224421Y1407660D01*
X226094Y1403623D01*
X226094Y1381345D01*
X224421Y1377308D01*
X221331Y1374217D01*
X220621Y1373923D01*
X220118Y1373584D01*
X219787Y1373076D01*
X219680Y1372515D01*
X219680Y1287485D01*
X219801Y1286890D01*
X220144Y1286390D01*
X220621Y1286077D01*
X221331Y1285783D01*
X224421Y1282692D01*
X226094Y1278655D01*
X226094Y1256377D01*
X224584Y1252732D01*
X224468Y1252137D01*
X224593Y1251543D01*
X224940Y1251046D01*
X225454Y1250723D01*
X225992Y1250625D01*
X254008Y1250625D01*
X254603Y1250746D01*
X255103Y1251089D01*
X255430Y1251600D01*
X255532Y1252198D01*
X255416Y1252732D01*
X253907Y1256377D01*
X253907Y1278655D01*
X255579Y1282692D01*
X258669Y1285783D01*
X259379Y1286077D01*
X259882Y1286416D01*
X260213Y1286924D01*
X260320Y1287485D01*
X260320Y1372515D01*
X260199Y1373110D01*
X259856Y1373610D01*
X259379Y1373923D01*
X258669Y1374217D01*
X255579Y1377308D01*
X253907Y1381345D01*
X253907Y1403623D01*
X255579Y1407660D01*
X258669Y1410751D01*
X262707Y1412423D01*
X266126Y1412423D01*
X266720Y1412544D01*
X267204Y1412869D01*
X281172Y1426837D01*
X281507Y1427343D01*
X281618Y1427915D01*
X281618Y1433803D01*
X283641Y1435826D01*
X283976Y1436332D01*
X284087Y1436928D01*
X283957Y1437521D01*
X283606Y1438015D01*
X283090Y1438334D01*
X282563Y1438428D01*
X204725Y1438428D01*
X204131Y1438307D01*
X203647Y1437982D01*
X198828Y1433163D01*
X198493Y1432657D01*
X198382Y1432085D01*
X198382Y1426197D01*
X193003Y1420818D01*
X185397Y1420818D01*
X180018Y1426197D01*
X180018Y1433803D01*
X182041Y1435826D01*
X182376Y1436332D01*
X182487Y1436928D01*
X182357Y1437521D01*
X182006Y1438015D01*
X181490Y1438334D01*
X180963Y1438428D01*
X159037Y1438428D01*
X158442Y1438307D01*
X157942Y1437964D01*
X157615Y1437453D01*
X157513Y1436855D01*
X157653Y1436265D01*
X157959Y1435826D01*
X159982Y1433803D01*
X159982Y1426197D01*
X154603Y1420818D01*
X148715Y1420818D01*
X148121Y1420697D01*
X147637Y1420372D01*
X135136Y1407871D01*
X134801Y1407365D01*
X134690Y1406769D01*
X134806Y1406210D01*
X135878Y1403623D01*
X135878Y1381345D01*
X134205Y1377308D01*
X131115Y1374217D01*
X130405Y1373923D01*
X129902Y1373584D01*
X129571Y1373076D01*
X129464Y1372515D01*
X129464Y1287485D01*
X129585Y1286890D01*
X129928Y1286390D01*
X130405Y1286077D01*
X131115Y1285783D01*
X134205Y1282692D01*
X135878Y1278655D01*
X135878Y1256377D01*
X134368Y1252732D01*
X134252Y1252137D01*
X134377Y1251543D01*
X134724Y1251046D01*
X135238Y1250723D01*
X135776Y1250625D01*
X191120Y1250625D01*
X191714Y1250746D01*
G37*
G36*
X114603Y1050746D02*
X115103Y1051089D01*
X115430Y1051600D01*
X115532Y1052198D01*
X115416Y1052732D01*
X113907Y1056377D01*
X113907Y1078655D01*
X115579Y1082692D01*
X118669Y1085783D01*
X119379Y1086077D01*
X119882Y1086416D01*
X120213Y1086924D01*
X120320Y1087485D01*
X120320Y1172515D01*
X120199Y1173110D01*
X119856Y1173610D01*
X119379Y1173923D01*
X118669Y1174217D01*
X115579Y1177308D01*
X113907Y1181345D01*
X113907Y1203623D01*
X115579Y1207660D01*
X118669Y1210751D01*
X122707Y1212423D01*
X126126Y1212423D01*
X126720Y1212544D01*
X127204Y1212869D01*
X141172Y1226837D01*
X141507Y1227343D01*
X141618Y1227915D01*
X141618Y1233803D01*
X146694Y1238879D01*
X147029Y1239385D01*
X147140Y1239981D01*
X147010Y1240574D01*
X146659Y1241068D01*
X146143Y1241387D01*
X145616Y1241481D01*
X95662Y1241481D01*
X93981Y1242177D01*
X85197Y1250961D01*
X84692Y1251296D01*
X84096Y1251407D01*
X83503Y1251277D01*
X83042Y1250961D01*
X81331Y1249249D01*
X77293Y1247577D01*
X72923Y1247577D01*
X68885Y1249249D01*
X65795Y1252340D01*
X64123Y1256377D01*
X64123Y1261420D01*
X64002Y1262014D01*
X63659Y1262515D01*
X63148Y1262842D01*
X62599Y1262944D01*
X30775Y1262944D01*
X29094Y1263640D01*
X23163Y1269572D01*
X22657Y1269907D01*
X22085Y1270018D01*
X16197Y1270018D01*
X14286Y1271929D01*
X13780Y1272264D01*
X13184Y1272375D01*
X12591Y1272245D01*
X12097Y1271894D01*
X11778Y1271378D01*
X11684Y1270851D01*
X11684Y1189867D01*
X11805Y1189273D01*
X12148Y1188772D01*
X12659Y1188445D01*
X13257Y1188344D01*
X13847Y1188483D01*
X14286Y1188789D01*
X15986Y1190490D01*
X18476Y1190490D01*
X18476Y1171110D01*
X15986Y1171110D01*
X14286Y1172811D01*
X13780Y1173146D01*
X13184Y1173257D01*
X12591Y1173127D01*
X12097Y1172776D01*
X11778Y1172260D01*
X11684Y1171733D01*
X11684Y1087549D01*
X11805Y1086954D01*
X12148Y1086454D01*
X12659Y1086127D01*
X13257Y1086025D01*
X13847Y1086165D01*
X14286Y1086471D01*
X16197Y1088382D01*
X23803Y1088382D01*
X29182Y1083003D01*
X29182Y1077115D01*
X29303Y1076521D01*
X29628Y1076037D01*
X33131Y1072534D01*
X33637Y1072199D01*
X34209Y1072088D01*
X62599Y1072088D01*
X63193Y1072209D01*
X63693Y1072552D01*
X64020Y1073063D01*
X64123Y1073612D01*
X64123Y1078655D01*
X65795Y1082692D01*
X68885Y1085783D01*
X69595Y1086077D01*
X70098Y1086416D01*
X70429Y1086924D01*
X70536Y1087485D01*
X70536Y1172515D01*
X70415Y1173110D01*
X70072Y1173610D01*
X69595Y1173923D01*
X68885Y1174217D01*
X65795Y1177308D01*
X64123Y1181345D01*
X64123Y1203623D01*
X65795Y1207660D01*
X68885Y1210751D01*
X72923Y1212423D01*
X77293Y1212423D01*
X81331Y1210751D01*
X84421Y1207660D01*
X86094Y1203623D01*
X86094Y1181345D01*
X84421Y1177308D01*
X81331Y1174217D01*
X80621Y1173923D01*
X80118Y1173584D01*
X79787Y1173076D01*
X79680Y1172515D01*
X79680Y1087485D01*
X79801Y1086890D01*
X80144Y1086390D01*
X80621Y1086077D01*
X81331Y1085783D01*
X84421Y1082692D01*
X86094Y1078655D01*
X86094Y1063628D01*
X86214Y1063033D01*
X86540Y1062550D01*
X98018Y1051071D01*
X98524Y1050736D01*
X99096Y1050625D01*
X114008Y1050625D01*
X114603Y1050746D01*
G37*
%LPC*%
G36*
X45397Y1220818D02*
X40018Y1226197D01*
X40018Y1233803D01*
X45397Y1239182D01*
X53003Y1239182D01*
X58382Y1233803D01*
X58382Y1226197D01*
X53003Y1220818D01*
X45397Y1220818D01*
G37*
G36*
X21524Y1182324D02*
X21524Y1190490D01*
X24014Y1190490D01*
X29690Y1184814D01*
X29690Y1182324D01*
X21524Y1182324D01*
G37*
G36*
X21524Y1171110D02*
X21524Y1179276D01*
X29690Y1179276D01*
X29690Y1176786D01*
X24014Y1171110D01*
X21524Y1171110D01*
G37*
%LPD*%
G36*
X191714Y1050746D02*
X192198Y1051071D01*
X203676Y1062550D01*
X204011Y1063056D01*
X204123Y1063628D01*
X204123Y1078655D01*
X205795Y1082692D01*
X208885Y1085783D01*
X209595Y1086077D01*
X210098Y1086416D01*
X210429Y1086924D01*
X210536Y1087485D01*
X210536Y1172515D01*
X210415Y1173110D01*
X210072Y1173610D01*
X209595Y1173923D01*
X208885Y1174217D01*
X205795Y1177308D01*
X204123Y1181345D01*
X204123Y1203623D01*
X205795Y1207660D01*
X208885Y1210751D01*
X212923Y1212423D01*
X217293Y1212423D01*
X221331Y1210751D01*
X224421Y1207660D01*
X226094Y1203623D01*
X226094Y1181345D01*
X224421Y1177308D01*
X221331Y1174217D01*
X220621Y1173923D01*
X220118Y1173584D01*
X219787Y1173076D01*
X219680Y1172515D01*
X219680Y1087485D01*
X219801Y1086890D01*
X220144Y1086390D01*
X220621Y1086077D01*
X221331Y1085783D01*
X224421Y1082692D01*
X226094Y1078655D01*
X226094Y1056377D01*
X224584Y1052732D01*
X224468Y1052137D01*
X224593Y1051543D01*
X224940Y1051046D01*
X225454Y1050723D01*
X225992Y1050625D01*
X254008Y1050625D01*
X254603Y1050746D01*
X255103Y1051089D01*
X255430Y1051600D01*
X255532Y1052198D01*
X255416Y1052732D01*
X253907Y1056377D01*
X253907Y1078655D01*
X255579Y1082692D01*
X258669Y1085783D01*
X259379Y1086077D01*
X259882Y1086416D01*
X260213Y1086924D01*
X260320Y1087485D01*
X260320Y1172515D01*
X260199Y1173110D01*
X259856Y1173610D01*
X259379Y1173923D01*
X258669Y1174217D01*
X255579Y1177308D01*
X253907Y1181345D01*
X253907Y1203623D01*
X255579Y1207660D01*
X258669Y1210751D01*
X262707Y1212423D01*
X266126Y1212423D01*
X266720Y1212544D01*
X267204Y1212869D01*
X281172Y1226837D01*
X281507Y1227343D01*
X281618Y1227915D01*
X281618Y1233803D01*
X286694Y1238879D01*
X287029Y1239385D01*
X287140Y1239981D01*
X287010Y1240574D01*
X286659Y1241068D01*
X286143Y1241387D01*
X285616Y1241481D01*
X194384Y1241481D01*
X193789Y1241360D01*
X193289Y1241017D01*
X192962Y1240506D01*
X192860Y1239908D01*
X193000Y1239318D01*
X193306Y1238879D01*
X198382Y1233803D01*
X198382Y1226197D01*
X193003Y1220818D01*
X185397Y1220818D01*
X180018Y1226197D01*
X180018Y1233803D01*
X185094Y1238879D01*
X185429Y1239385D01*
X185540Y1239981D01*
X185410Y1240574D01*
X185059Y1241068D01*
X184543Y1241387D01*
X184016Y1241481D01*
X155984Y1241481D01*
X155389Y1241360D01*
X154889Y1241017D01*
X154562Y1240506D01*
X154460Y1239908D01*
X154600Y1239318D01*
X154906Y1238879D01*
X159982Y1233803D01*
X159982Y1226197D01*
X154603Y1220818D01*
X148715Y1220818D01*
X148121Y1220697D01*
X147637Y1220372D01*
X135136Y1207871D01*
X134801Y1207365D01*
X134690Y1206769D01*
X134806Y1206210D01*
X135878Y1203623D01*
X135878Y1181345D01*
X134205Y1177308D01*
X131115Y1174217D01*
X130405Y1173923D01*
X129902Y1173584D01*
X129571Y1173076D01*
X129464Y1172515D01*
X129464Y1087485D01*
X129585Y1086890D01*
X129928Y1086390D01*
X130405Y1086077D01*
X131115Y1085783D01*
X134205Y1082692D01*
X135878Y1078655D01*
X135878Y1056377D01*
X134368Y1052732D01*
X134252Y1052137D01*
X134377Y1051543D01*
X134724Y1051046D01*
X135238Y1050723D01*
X135776Y1050625D01*
X191120Y1050625D01*
X191714Y1050746D01*
G37*
G36*
X114625Y850693D02*
X115125Y851036D01*
X115452Y851547D01*
X115554Y852145D01*
X115438Y852679D01*
X113907Y856377D01*
X113907Y878655D01*
X115579Y882692D01*
X118669Y885783D01*
X119379Y886077D01*
X119882Y886416D01*
X120213Y886924D01*
X120320Y887485D01*
X120320Y972515D01*
X120199Y973110D01*
X119856Y973610D01*
X119379Y973923D01*
X118669Y974217D01*
X115579Y977308D01*
X113907Y981345D01*
X113907Y1003623D01*
X115579Y1007660D01*
X118669Y1010751D01*
X122707Y1012423D01*
X126126Y1012423D01*
X126720Y1012544D01*
X127204Y1012869D01*
X141172Y1026837D01*
X141507Y1027343D01*
X141618Y1027915D01*
X141618Y1033803D01*
X146694Y1038879D01*
X147029Y1039385D01*
X147140Y1039981D01*
X147010Y1040574D01*
X146659Y1041068D01*
X146143Y1041387D01*
X145616Y1041481D01*
X95662Y1041481D01*
X93981Y1042177D01*
X85197Y1050961D01*
X84692Y1051296D01*
X84096Y1051407D01*
X83503Y1051277D01*
X83042Y1050961D01*
X81331Y1049249D01*
X77293Y1047577D01*
X72923Y1047577D01*
X68885Y1049249D01*
X65795Y1052340D01*
X64123Y1056377D01*
X64123Y1061420D01*
X64002Y1062014D01*
X63659Y1062515D01*
X63148Y1062842D01*
X62599Y1062944D01*
X30775Y1062944D01*
X29094Y1063640D01*
X23163Y1069572D01*
X22657Y1069907D01*
X22085Y1070018D01*
X16197Y1070018D01*
X14286Y1071929D01*
X13780Y1072264D01*
X13184Y1072375D01*
X12591Y1072245D01*
X12097Y1071894D01*
X11778Y1071378D01*
X11684Y1070851D01*
X11684Y989867D01*
X11805Y989273D01*
X12148Y988772D01*
X12659Y988445D01*
X13257Y988344D01*
X13847Y988483D01*
X14286Y988789D01*
X15986Y990490D01*
X18476Y990490D01*
X18476Y971110D01*
X15986Y971110D01*
X14286Y972811D01*
X13780Y973146D01*
X13184Y973257D01*
X12591Y973127D01*
X12097Y972776D01*
X11778Y972260D01*
X11684Y971733D01*
X11684Y887549D01*
X11805Y886954D01*
X12148Y886454D01*
X12659Y886127D01*
X13257Y886025D01*
X13847Y886165D01*
X14286Y886471D01*
X16197Y888382D01*
X23803Y888382D01*
X29182Y883003D01*
X29182Y877115D01*
X29303Y876521D01*
X29628Y876037D01*
X33131Y872534D01*
X33637Y872199D01*
X34209Y872088D01*
X62599Y872088D01*
X63193Y872209D01*
X63693Y872552D01*
X64020Y873063D01*
X64123Y873612D01*
X64123Y878655D01*
X65795Y882692D01*
X68885Y885783D01*
X69595Y886077D01*
X70098Y886416D01*
X70429Y886924D01*
X70536Y887485D01*
X70536Y972515D01*
X70415Y973110D01*
X70072Y973610D01*
X69595Y973923D01*
X68885Y974217D01*
X65795Y977308D01*
X64123Y981345D01*
X64123Y1003623D01*
X65795Y1007660D01*
X68885Y1010751D01*
X72923Y1012423D01*
X77293Y1012423D01*
X81331Y1010751D01*
X84421Y1007660D01*
X86094Y1003623D01*
X86094Y981345D01*
X84421Y977308D01*
X81331Y974217D01*
X80621Y973923D01*
X80118Y973584D01*
X79787Y973076D01*
X79680Y972515D01*
X79680Y887485D01*
X79801Y886890D01*
X80144Y886390D01*
X80621Y886077D01*
X81331Y885783D01*
X84421Y882692D01*
X86094Y878655D01*
X86094Y863628D01*
X86214Y863033D01*
X86540Y862550D01*
X98071Y851018D01*
X98577Y850683D01*
X99149Y850572D01*
X114030Y850572D01*
X114625Y850693D01*
G37*
%LPC*%
G36*
X45397Y1020818D02*
X40018Y1026197D01*
X40018Y1033803D01*
X45397Y1039182D01*
X53003Y1039182D01*
X58382Y1033803D01*
X58382Y1026197D01*
X53003Y1020818D01*
X45397Y1020818D01*
G37*
G36*
X21524Y982324D02*
X21524Y990490D01*
X24014Y990490D01*
X29690Y984814D01*
X29690Y982324D01*
X21524Y982324D01*
G37*
G36*
X21524Y971110D02*
X21524Y979276D01*
X29690Y979276D01*
X29690Y976786D01*
X24014Y971110D01*
X21524Y971110D01*
G37*
%LPD*%
G36*
X191661Y850693D02*
X192145Y851018D01*
X203676Y862550D01*
X204011Y863056D01*
X204123Y863628D01*
X204123Y878655D01*
X205795Y882692D01*
X208885Y885783D01*
X209595Y886077D01*
X210098Y886416D01*
X210429Y886924D01*
X210536Y887485D01*
X210536Y972515D01*
X210415Y973110D01*
X210072Y973610D01*
X209595Y973923D01*
X208885Y974217D01*
X205795Y977308D01*
X204123Y981345D01*
X204123Y1003623D01*
X205795Y1007660D01*
X208885Y1010751D01*
X212923Y1012423D01*
X217293Y1012423D01*
X221331Y1010751D01*
X224421Y1007660D01*
X226094Y1003623D01*
X226094Y981345D01*
X224421Y977308D01*
X221331Y974217D01*
X220621Y973923D01*
X220118Y973584D01*
X219787Y973076D01*
X219680Y972515D01*
X219680Y887485D01*
X219801Y886890D01*
X220144Y886390D01*
X220621Y886077D01*
X221331Y885783D01*
X224421Y882692D01*
X226094Y878655D01*
X226094Y856377D01*
X224562Y852679D01*
X224446Y852084D01*
X224571Y851490D01*
X224918Y850993D01*
X225432Y850670D01*
X225970Y850572D01*
X254030Y850572D01*
X254625Y850693D01*
X255125Y851036D01*
X255452Y851547D01*
X255554Y852145D01*
X255438Y852679D01*
X253907Y856377D01*
X253907Y878655D01*
X255579Y882692D01*
X258669Y885783D01*
X259379Y886077D01*
X259882Y886416D01*
X260213Y886924D01*
X260320Y887485D01*
X260320Y972515D01*
X260199Y973110D01*
X259856Y973610D01*
X259379Y973923D01*
X258669Y974217D01*
X255579Y977308D01*
X253907Y981345D01*
X253907Y1003623D01*
X255579Y1007660D01*
X258669Y1010751D01*
X262707Y1012423D01*
X266126Y1012423D01*
X266720Y1012544D01*
X267204Y1012869D01*
X281172Y1026837D01*
X281507Y1027343D01*
X281618Y1027915D01*
X281618Y1033803D01*
X286694Y1038879D01*
X287029Y1039385D01*
X287140Y1039981D01*
X287010Y1040574D01*
X286659Y1041068D01*
X286143Y1041387D01*
X285616Y1041481D01*
X194384Y1041481D01*
X193789Y1041360D01*
X193289Y1041017D01*
X192962Y1040506D01*
X192860Y1039908D01*
X193000Y1039318D01*
X193306Y1038879D01*
X198382Y1033803D01*
X198382Y1026197D01*
X193003Y1020818D01*
X185397Y1020818D01*
X180018Y1026197D01*
X180018Y1033803D01*
X185094Y1038879D01*
X185429Y1039385D01*
X185540Y1039981D01*
X185410Y1040574D01*
X185059Y1041068D01*
X184543Y1041387D01*
X184016Y1041481D01*
X155984Y1041481D01*
X155389Y1041360D01*
X154889Y1041017D01*
X154562Y1040506D01*
X154460Y1039908D01*
X154600Y1039318D01*
X154906Y1038879D01*
X159982Y1033803D01*
X159982Y1026197D01*
X154603Y1020818D01*
X148715Y1020818D01*
X148121Y1020697D01*
X147637Y1020372D01*
X135136Y1007871D01*
X134801Y1007365D01*
X134690Y1006769D01*
X134806Y1006210D01*
X135878Y1003623D01*
X135878Y981345D01*
X134205Y977308D01*
X131115Y974217D01*
X130405Y973923D01*
X129902Y973584D01*
X129571Y973076D01*
X129464Y972515D01*
X129464Y887485D01*
X129585Y886890D01*
X129928Y886390D01*
X130405Y886077D01*
X131115Y885783D01*
X134205Y882692D01*
X135878Y878655D01*
X135878Y856377D01*
X134346Y852679D01*
X134230Y852084D01*
X134355Y851490D01*
X134702Y850993D01*
X135216Y850670D01*
X135754Y850572D01*
X191067Y850572D01*
X191661Y850693D01*
G37*
G36*
X114603Y650746D02*
X115103Y651089D01*
X115430Y651600D01*
X115532Y652198D01*
X115416Y652732D01*
X113907Y656377D01*
X113907Y678655D01*
X115579Y682692D01*
X118669Y685783D01*
X119379Y686077D01*
X119882Y686416D01*
X120213Y686924D01*
X120320Y687485D01*
X120320Y772515D01*
X120199Y773110D01*
X119856Y773610D01*
X119379Y773923D01*
X118669Y774217D01*
X115579Y777308D01*
X113907Y781345D01*
X113907Y803623D01*
X115579Y807660D01*
X118669Y810751D01*
X122707Y812423D01*
X126126Y812423D01*
X126720Y812544D01*
X127204Y812869D01*
X141172Y826837D01*
X141507Y827343D01*
X141618Y827915D01*
X141618Y833803D01*
X146641Y838826D01*
X146976Y839332D01*
X147087Y839928D01*
X146957Y840521D01*
X146606Y841015D01*
X146090Y841334D01*
X145563Y841428D01*
X95715Y841428D01*
X94034Y842124D01*
X85197Y850961D01*
X84692Y851296D01*
X84096Y851407D01*
X83503Y851277D01*
X83042Y850961D01*
X81331Y849249D01*
X77293Y847577D01*
X72923Y847577D01*
X68885Y849249D01*
X65795Y852340D01*
X64123Y856377D01*
X64123Y861420D01*
X64002Y862014D01*
X63659Y862515D01*
X63148Y862842D01*
X62599Y862944D01*
X30775Y862944D01*
X29094Y863640D01*
X23163Y869572D01*
X22657Y869907D01*
X22085Y870018D01*
X16197Y870018D01*
X14286Y871929D01*
X13780Y872264D01*
X13184Y872375D01*
X12591Y872245D01*
X12097Y871894D01*
X11778Y871378D01*
X11684Y870851D01*
X11684Y789867D01*
X11805Y789273D01*
X12148Y788772D01*
X12659Y788445D01*
X13257Y788344D01*
X13847Y788483D01*
X14286Y788789D01*
X15986Y790490D01*
X18476Y790490D01*
X18476Y771110D01*
X15986Y771110D01*
X14286Y772811D01*
X13780Y773146D01*
X13184Y773257D01*
X12591Y773127D01*
X12097Y772776D01*
X11778Y772260D01*
X11684Y771733D01*
X11684Y687549D01*
X11805Y686954D01*
X12148Y686454D01*
X12659Y686127D01*
X13257Y686025D01*
X13847Y686165D01*
X14286Y686471D01*
X16197Y688382D01*
X23803Y688382D01*
X29182Y683003D01*
X29182Y677115D01*
X29303Y676521D01*
X29628Y676037D01*
X33131Y672534D01*
X33637Y672199D01*
X34209Y672088D01*
X62599Y672088D01*
X63193Y672209D01*
X63693Y672552D01*
X64020Y673063D01*
X64123Y673612D01*
X64123Y678655D01*
X65795Y682692D01*
X68885Y685783D01*
X69595Y686077D01*
X70098Y686416D01*
X70429Y686924D01*
X70536Y687485D01*
X70536Y772515D01*
X70415Y773110D01*
X70072Y773610D01*
X69595Y773923D01*
X68885Y774217D01*
X65795Y777308D01*
X64123Y781345D01*
X64123Y803623D01*
X65795Y807660D01*
X68885Y810751D01*
X72923Y812423D01*
X77293Y812423D01*
X81331Y810751D01*
X84421Y807660D01*
X86094Y803623D01*
X86094Y781345D01*
X84421Y777308D01*
X81331Y774217D01*
X80621Y773923D01*
X80118Y773584D01*
X79787Y773076D01*
X79680Y772515D01*
X79680Y687485D01*
X79801Y686890D01*
X80144Y686390D01*
X80621Y686077D01*
X81331Y685783D01*
X84421Y682692D01*
X86094Y678655D01*
X86094Y663628D01*
X86214Y663033D01*
X86540Y662550D01*
X98018Y651071D01*
X98524Y650736D01*
X99096Y650625D01*
X114008Y650625D01*
X114603Y650746D01*
G37*
%LPC*%
G36*
X45397Y820818D02*
X40018Y826197D01*
X40018Y833803D01*
X45397Y839182D01*
X53003Y839182D01*
X58382Y833803D01*
X58382Y826197D01*
X53003Y820818D01*
X45397Y820818D01*
G37*
G36*
X21524Y782324D02*
X21524Y790490D01*
X24014Y790490D01*
X29690Y784814D01*
X29690Y782324D01*
X21524Y782324D01*
G37*
G36*
X21524Y771110D02*
X21524Y779276D01*
X29690Y779276D01*
X29690Y776786D01*
X24014Y771110D01*
X21524Y771110D01*
G37*
%LPD*%
G36*
X138040Y660618D02*
X138479Y660924D01*
X148947Y671392D01*
X150627Y672088D01*
X202599Y672088D01*
X203193Y672209D01*
X203693Y672552D01*
X204020Y673063D01*
X204123Y673612D01*
X204123Y678655D01*
X205795Y682692D01*
X208885Y685783D01*
X209595Y686077D01*
X210098Y686416D01*
X210429Y686924D01*
X210536Y687485D01*
X210536Y772515D01*
X210415Y773110D01*
X210072Y773610D01*
X209595Y773923D01*
X208885Y774217D01*
X205795Y777308D01*
X204123Y781345D01*
X204123Y803623D01*
X205795Y807660D01*
X208885Y810751D01*
X212923Y812423D01*
X217293Y812423D01*
X218440Y811948D01*
X219035Y811832D01*
X219628Y811958D01*
X220126Y812305D01*
X220449Y812818D01*
X220546Y813417D01*
X220401Y814006D01*
X220101Y814434D01*
X200984Y833551D01*
X200478Y833886D01*
X199882Y833997D01*
X199289Y833867D01*
X198795Y833516D01*
X198476Y833000D01*
X198382Y832473D01*
X198382Y826197D01*
X193003Y820818D01*
X185397Y820818D01*
X180018Y826197D01*
X180018Y833803D01*
X185041Y838826D01*
X185376Y839332D01*
X185487Y839928D01*
X185357Y840521D01*
X185006Y841015D01*
X184490Y841334D01*
X183963Y841428D01*
X156037Y841428D01*
X155442Y841307D01*
X154942Y840964D01*
X154615Y840453D01*
X154513Y839855D01*
X154653Y839265D01*
X154959Y838826D01*
X159982Y833803D01*
X159982Y826197D01*
X154603Y820818D01*
X148715Y820818D01*
X148121Y820697D01*
X147637Y820372D01*
X135136Y807871D01*
X134801Y807365D01*
X134690Y806769D01*
X134806Y806210D01*
X135878Y803623D01*
X135878Y781345D01*
X134205Y777308D01*
X131115Y774217D01*
X130405Y773923D01*
X129902Y773584D01*
X129571Y773076D01*
X129464Y772515D01*
X129464Y687485D01*
X129585Y686890D01*
X129928Y686390D01*
X130405Y686077D01*
X131115Y685783D01*
X134205Y682692D01*
X135878Y678655D01*
X135878Y662002D01*
X135998Y661408D01*
X136341Y660907D01*
X136852Y660580D01*
X137450Y660479D01*
X138040Y660618D01*
G37*
G36*
X259452Y811075D02*
X262707Y812423D01*
X266126Y812423D01*
X266720Y812544D01*
X267204Y812869D01*
X281172Y826837D01*
X281507Y827343D01*
X281618Y827915D01*
X281618Y833803D01*
X286641Y838826D01*
X286976Y839332D01*
X287087Y839928D01*
X286957Y840521D01*
X286606Y841015D01*
X286090Y841334D01*
X285563Y841428D01*
X209717Y841428D01*
X209123Y841307D01*
X208622Y840964D01*
X208296Y840453D01*
X208194Y839855D01*
X208333Y839265D01*
X208639Y838826D01*
X232447Y815018D01*
X232953Y814683D01*
X233525Y814572D01*
X243164Y814572D01*
X243759Y814693D01*
X244242Y815018D01*
X245684Y816460D01*
X248484Y817620D01*
X251516Y817620D01*
X254316Y816460D01*
X256460Y814316D01*
X257461Y811900D01*
X257800Y811397D01*
X258308Y811066D01*
X258905Y810959D01*
X259452Y811075D01*
G37*
G36*
X262894Y644693D02*
X263395Y645036D01*
X263721Y645547D01*
X263823Y646145D01*
X263684Y646735D01*
X263325Y647224D01*
X262883Y647504D01*
X258669Y649249D01*
X255579Y652340D01*
X253907Y656377D01*
X253907Y678655D01*
X255579Y682692D01*
X258669Y685783D01*
X259379Y686077D01*
X259882Y686416D01*
X260213Y686924D01*
X260320Y687485D01*
X260320Y772515D01*
X260199Y773110D01*
X259856Y773610D01*
X259379Y773923D01*
X258669Y774217D01*
X255579Y777308D01*
X253907Y781345D01*
X253907Y801089D01*
X253786Y801684D01*
X253443Y802184D01*
X252932Y802511D01*
X252334Y802613D01*
X251799Y802497D01*
X251516Y802380D01*
X248484Y802380D01*
X245684Y803540D01*
X244242Y804982D01*
X243736Y805317D01*
X243164Y805428D01*
X230091Y805428D01*
X228410Y806124D01*
X228104Y806430D01*
X227599Y806765D01*
X227002Y806876D01*
X226410Y806746D01*
X225915Y806395D01*
X225596Y805879D01*
X225504Y805280D01*
X225619Y804769D01*
X226094Y803623D01*
X226094Y781345D01*
X224421Y777308D01*
X221331Y774217D01*
X220621Y773923D01*
X220118Y773584D01*
X219787Y773076D01*
X219680Y772515D01*
X219680Y687485D01*
X219801Y686890D01*
X220144Y686390D01*
X220621Y686077D01*
X221331Y685783D01*
X224421Y682692D01*
X226094Y678655D01*
X226094Y663628D01*
X226214Y663033D01*
X226540Y662550D01*
X244071Y645018D01*
X244577Y644683D01*
X245149Y644572D01*
X262300Y644572D01*
X262894Y644693D01*
G37*
G36*
X230570Y11805D02*
X231070Y12148D01*
X231397Y12659D01*
X231498Y13257D01*
X231359Y13847D01*
X231224Y14040D01*
X229586Y17995D01*
X229586Y22137D01*
X231171Y25965D01*
X234101Y28895D01*
X234487Y29055D01*
X234990Y29394D01*
X235321Y29902D01*
X235428Y30463D01*
X235428Y77475D01*
X235307Y78069D01*
X234982Y78553D01*
X114833Y198701D01*
X114327Y199036D01*
X113731Y199147D01*
X113172Y199032D01*
X108794Y197218D01*
X104106Y197218D01*
X102891Y197722D01*
X102295Y197838D01*
X101702Y197712D01*
X101204Y197365D01*
X100882Y196852D01*
X100785Y196253D01*
X100929Y195664D01*
X101230Y195236D01*
X218476Y77990D01*
X219172Y76309D01*
X219172Y30463D01*
X219293Y29868D01*
X219636Y29368D01*
X220113Y29055D01*
X220499Y28895D01*
X223429Y25965D01*
X225014Y22137D01*
X225014Y17995D01*
X223362Y14005D01*
X223212Y13780D01*
X223101Y13184D01*
X223231Y12591D01*
X223582Y12097D01*
X224098Y11778D01*
X224625Y11684D01*
X229975Y11684D01*
X230570Y11805D01*
G37*
D10*
X329200Y1030000D03*
X430800Y1030000D03*
D11*
X20000Y1180800D03*
X20000Y1079200D03*
D10*
X49200Y1230000D03*
X150800Y1230000D03*
X189200Y1230000D03*
X290800Y1230000D03*
X329200Y1230000D03*
X430800Y1230000D03*
D11*
X20000Y1380800D03*
X20000Y1279200D03*
D10*
X49200Y1430000D03*
X150800Y1430000D03*
X189200Y1430000D03*
X290800Y1430000D03*
X329200Y1430000D03*
X430800Y1430000D03*
D11*
X20000Y780800D03*
X20000Y679200D03*
X20000Y980800D03*
X20000Y879200D03*
D10*
X49200Y1030000D03*
X150800Y1030000D03*
X49200Y830000D03*
X150800Y830000D03*
X189200Y830000D03*
X290800Y830000D03*
X329200Y830000D03*
X430800Y830000D03*
X189200Y1030000D03*
X290800Y1030000D03*
D12*
X404892Y676470D02*
X404892Y658563D01*
X404892Y783531D02*
X404892Y801438D01*
X355108Y676470D02*
X355108Y658563D01*
X355108Y783531D02*
X355108Y801438D01*
X404892Y1258563D02*
X404892Y1276470D01*
X404892Y1383531D02*
X404892Y1401438D01*
X355108Y1276470D02*
X355108Y1258563D01*
X355108Y1383531D02*
X355108Y1401438D01*
X264892Y1276470D02*
X264892Y1258563D01*
X264892Y1383531D02*
X264892Y1401438D01*
X215108Y1276470D02*
X215108Y1258563D01*
X215108Y1383531D02*
X215108Y1401438D01*
X124892Y1276470D02*
X124892Y1258563D01*
X124892Y1383531D02*
X124892Y1401438D01*
X75108Y1276470D02*
X75108Y1258563D01*
X75108Y1383531D02*
X75108Y1401438D01*
X264892Y676470D02*
X264892Y658563D01*
X264892Y783531D02*
X264892Y801438D01*
X215108Y676470D02*
X215108Y658563D01*
X215108Y783531D02*
X215108Y801438D01*
X124892Y676470D02*
X124892Y658563D01*
X124892Y783531D02*
X124892Y801438D01*
X75108Y676470D02*
X75108Y658563D01*
X75108Y783531D02*
X75108Y801438D01*
X404892Y858869D02*
X404892Y876776D01*
X404892Y983837D02*
X404892Y1001744D01*
X355108Y876776D02*
X355108Y858869D01*
X355108Y983837D02*
X355108Y1001744D01*
X264892Y876470D02*
X264892Y858563D01*
X264892Y983531D02*
X264892Y1001438D01*
X215108Y876470D02*
X215108Y858563D01*
X215108Y983531D02*
X215108Y1001438D01*
X124892Y876470D02*
X124892Y858563D01*
X124892Y983531D02*
X124892Y1001438D01*
X75108Y876470D02*
X75108Y858563D01*
X75108Y983531D02*
X75108Y1001438D01*
X404892Y1058563D02*
X404892Y1076470D01*
X404892Y1183531D02*
X404892Y1201438D01*
X355108Y1076470D02*
X355108Y1058563D01*
X355108Y1183531D02*
X355108Y1201438D01*
X264892Y1076470D02*
X264892Y1058563D01*
X264892Y1183531D02*
X264892Y1201438D01*
X215108Y1076470D02*
X215108Y1058563D01*
X215108Y1183531D02*
X215108Y1201438D01*
X124892Y1076470D02*
X124892Y1058563D01*
X124892Y1183531D02*
X124892Y1201438D01*
X75108Y1076470D02*
X75108Y1058563D01*
X75108Y1183531D02*
X75108Y1201438D01*
D13*
X106450Y209000D03*
X306450Y209000D03*
D14*
X316200Y594192D02*
X316200Y609432D01*
X290800Y609432D02*
X290800Y594192D01*
X265400Y594192D02*
X265400Y609432D01*
X240000Y609432D02*
X240000Y594192D01*
X214600Y594192D02*
X214600Y609432D01*
X189200Y609432D02*
X189200Y594192D01*
X163800Y594192D02*
X163800Y609432D01*
D10*
X49200Y1470000D03*
X150800Y1470000D03*
D15*
X430800Y1470000D03*
X329200Y1470000D03*
D16*
X240000Y20066D03*
X265400Y20066D03*
X214600Y20066D03*
D17*
X187300Y1490000D03*
X212700Y1490000D03*
X267300Y1490000D03*
X292700Y1490000D03*
D18*
X75108Y1392484D02*
X75108Y1267516D01*
X215108Y1267516D02*
X215108Y1392484D01*
X355108Y1392484D02*
X355108Y1267516D01*
X31684Y1267516D02*
X20000Y1279200D01*
X31684Y1267516D02*
X75108Y1267516D01*
X96571Y1246053D01*
X193645Y1246053D01*
X215108Y1267516D01*
X193645Y1246053D02*
X333645Y1246053D01*
X355108Y1267516D01*
X20000Y1380800D02*
X20000Y1440800D01*
X49200Y1470000D01*
X380800Y1520000D02*
X430800Y1470000D01*
X380800Y1520000D02*
X99200Y1520000D01*
X49200Y1470000D01*
X413208Y315758D02*
X306450Y209000D01*
X413208Y315758D02*
X413208Y479404D01*
X290800Y601812D01*
X124892Y667516D02*
X124892Y792484D01*
X124892Y804092D01*
X150800Y830000D01*
X264892Y804092D02*
X290800Y830000D01*
X264892Y804092D02*
X264892Y792484D01*
X264892Y667516D01*
X404892Y804092D02*
X430800Y830000D01*
X404892Y804092D02*
X404892Y792484D01*
X404892Y667516D01*
X214600Y75400D02*
X214600Y20066D01*
X214600Y75400D02*
X70000Y220000D01*
X70000Y460000D01*
X180000Y570000D01*
X300000Y570000D01*
D19*
X300000Y570000D03*
D18*
X49200Y1430000D02*
X62200Y1443000D01*
X202200Y1443000D01*
X316200Y1443000D01*
X329200Y1430000D01*
X202200Y1443000D02*
X189200Y1430000D01*
X150800Y1030000D02*
X124892Y1004092D01*
X124892Y992484D01*
X124892Y867516D01*
X264892Y867516D02*
X264892Y992484D01*
X264892Y1004092D01*
X290800Y1030000D01*
X404892Y1004092D02*
X430800Y1030000D01*
X404892Y1004092D02*
X404892Y992790D01*
X404892Y867822D01*
X124892Y1204092D02*
X150800Y1230000D01*
X124892Y1204092D02*
X124892Y1192484D01*
X124892Y1067516D01*
X264892Y1067516D02*
X264892Y1192484D01*
X264892Y1204092D01*
X290800Y1230000D01*
X404892Y1204092D02*
X430800Y1230000D01*
X404892Y1204092D02*
X404892Y1192484D01*
X404892Y1067516D01*
X124892Y1267516D02*
X124892Y1392484D01*
X124892Y1404092D01*
X150800Y1430000D01*
X264892Y1392484D02*
X264892Y1267516D01*
X264892Y1392484D02*
X264892Y1404092D01*
X290800Y1430000D01*
X404892Y1392484D02*
X404892Y1267516D01*
X404892Y1392484D02*
X404892Y1404092D01*
X430800Y1430000D01*
X75108Y992484D02*
X75108Y867516D01*
X215108Y867516D02*
X215108Y992484D01*
X355108Y992790D02*
X355108Y867822D01*
X31684Y867516D02*
X20000Y879200D01*
X31684Y867516D02*
X75108Y867516D01*
X96624Y846000D01*
X193592Y846000D01*
X215108Y867516D01*
X195000Y846000D02*
X193592Y846000D01*
X195000Y846000D02*
X333286Y846000D01*
X355108Y867822D01*
X231000Y810000D02*
X195000Y846000D01*
D19*
X250000Y810000D03*
D18*
X231000Y810000D01*
X215108Y792484D02*
X215108Y667516D01*
X75108Y667516D02*
X75108Y792484D01*
X20000Y679200D02*
X31684Y667516D01*
X75108Y667516D01*
X96571Y646053D01*
X130074Y646053D01*
X151537Y667516D02*
X215108Y667516D01*
X151537Y667516D02*
X130074Y646053D01*
X297516Y667516D02*
X355108Y667516D01*
X297516Y667516D02*
X270000Y640000D01*
X242624Y640000D01*
X215108Y667516D01*
X242624Y640000D02*
X240000Y637376D01*
X240000Y601812D01*
X355108Y667516D02*
X355108Y792484D01*
X355108Y1067516D02*
X355108Y1192484D01*
X215108Y1192484D02*
X215108Y1067516D01*
X75108Y1067516D02*
X75108Y1192484D01*
X20000Y1079200D02*
X31684Y1067516D01*
X75108Y1067516D01*
X96571Y1046053D01*
X193645Y1046053D01*
X215108Y1067516D01*
X193645Y1046053D02*
X333645Y1046053D01*
X355108Y1067516D01*
X312700Y1470000D02*
X292700Y1490000D01*
X312700Y1470000D02*
X329200Y1470000D01*
X192700Y1470000D02*
X150800Y1470000D01*
X192700Y1470000D02*
X212700Y1490000D01*
X240000Y80000D02*
X240000Y20066D01*
X240000Y80000D02*
X111000Y209000D01*
X106450Y209000D01*
M02*
